<svg xmlns:dc="http://purl.org/dc/elements/1.1/" xmlns:cc="http://creativecommons.org/ns#" xmlns:rdf="http://www.w3.org/1999/02/22-rdf-syntax-ns#" xmlns:svg="http://www.w3.org/2000/svg" xmlns="http://www.w3.org/2000/svg" viewBox="0 0 762 762" fill="none"><metadata><rdf:RDF><cc:Work><dc:format>image/svg+xml</dc:format><dc:type rdf:resource="http://purl.org/dc/dcmitype/StillImage"/><dc:title>Adventurer</dc:title><dc:creator><cc:Agent><dc:title>Lisa Wischofsky</dc:title></cc:Agent></dc:creator><dc:source>https://www.instagram.com/lischis_adventures/</dc:source><cc:license rdf:resource="https://creativecommons.org/licenses/by/4.0/"/></cc:Work><cc:License rdf:about="https://creativecommons.org/licenses/by/4.0/"><cc:permits rdf:resource="https://creativecommons.org/ns#Reproduction"/><cc:permits rdf:resource="https://creativecommons.org/ns#Distribution"/><cc:permits rdf:resource="https://creativecommons.org/ns#DerivativeWorks"/><cc:requires rdf:resource="https://creativecommons.org/ns#Notice"/><cc:requires rdf:resource="https://creativecommons.org/ns#Attribution"/></cc:License></rdf:RDF></metadata><mask id="avatarsRadiusMask"><rect width="762" height="762" rx="0" ry="0" x="0" y="0" fill="#fff"/></mask><g mask="url(#avatarsRadiusMask)"><path d="M396.01 164.85c37.82 4.9 74.21 19.64 104.8 42.39 6.15 4.84 12.48 9.33 18.02 14.92 23.77 21.98 42.73 49.02 55.13 78.95 9.35 22.31 14.72 46.04 16.64 70.14 6.62.81 13.05 2.14 19.12 5 15.54 6.93 27.08 20.94 31.78 37.21 2.63 9.56 3.56 19.75 1.72 29.55-2.96 18.76-13.72 36.13-29.37 46.92-10.94 7.65-24.49 12.03-37.86 11.68-5.13-.05-10.04-1.6-15.13-1.79-1.85 2.17-3.23 4.84-4.76 7.25-18.66 29.62-44.57 54.51-74.64 72.4-28.1 16.73-59.9 27.16-92.46 30.32-11.08.7-21.87 2.05-32.98.74-51.69-2.3-102.07-23.44-140.15-58.43-29.03-26.55-50.84-60.83-62.54-98.39-7.09-22.85-10.62-46.78-10.07-70.71.52-40.34 12.53-80.58 33.94-114.76 19.1-30.81 45.91-56.58 77.2-74.83 29.63-17.28 63.35-27.68 97.59-29.87 14.66-1.47 29.44-.37 44.02 1.31Z" fill="#000"/><path d="M363 169.06c48.47-1.39 97.32 14.7 135.81 44.12 6.55 4.06 11.72 9.49 17.36 14.64 24.33 22.63 43.2 50.95 54.93 82.02 7.43 19.61 11.86 40.2 13.56 61.09-8.89.74-17.34 2.34-25.38 6.38-2.19 1.03-1.89 4.95.68 5.23 2.35.23 4.98-1.51 7.24-2.2 14.62-5.37 31.32-4.35 44.78 3.68 11.69 6.78 20.09 18.16 23.89 31.06 2.6 8.25 2.68 17.41 1.76 25.95-2.5 17.35-12.35 33.73-26.73 43.81-15.71 11.33-37.17 14.64-54.93 6.2-3.17-1.43-5.94-3.58-9.08-5.05-2.95-1.09-4.88 2.79-2.7 4.75 3.17 2.76 7.34 4.52 11 6.56-20.14 34.15-49.45 62.7-84.41 81.47-30.2 16.31-64.44 25.53-98.78 26.15-27.63.72-55.33-4.04-81.21-13.72-30.32-11.24-57.84-29.43-80.37-52.6-22.67-23.37-39.92-51.88-50.2-82.77-14.96-44.64-14.91-94.01.27-138.59 11.05-33.06 30.28-63.21 55.37-87.39 29.67-28.73 67.65-48.54 108.13-56.67 12.8-2.52 25.94-4.24 39.01-4.12Z" fill="rgba(158, 86, 34, 1)"/><path d="M605.03 404.4c2.63-.1 3.44 3.8 1.36 4.98-3.69 1.83-7.82 2.77-11.64 4.35-5.82 2.04-11.28 4.76-16.68 7.72 4.29 2.34 8.86 4.74 12.71 7.76 2.58 2.09 4.85 4.35 5.33 7.8-.26 3.59-2.73 6.55-5.45 8.69-5.86 4.66-13.92 7.18-20.79 10.26-1.75.62-4.43 1.99-5.59-.26-1.02-1.74-.06-3.11 1.57-3.87 6.65-3.3 14.86-5.62 20.79-10.16 1.37-1.14 3.39-2.74 3.61-4.62-4.07-5.63-12.42-8.59-18.23-12.09-2.34-1.72-2.29-4.24-.16-6.13 7.27-5.64 16.98-9.26 25.57-12.38 2.42-.83 5.03-1.95 7.6-2.05Z" fill="#000"/><g transform="translate(-161 -83)"><path d="M617.23 468.82c1.16 1.34 2.37 2.36 2.84 4.14 4.46 17.23 1.58 36.09-7.98 51.11-8.01 12.77-20.52 22.56-34.83 27.28-11.68 3.74-24.33 4.31-36.24 1.27-17.06-4.16-32.11-15.59-40.77-30.86-7.18-12.23-9.85-26.73-8.06-40.75.53-3.41 1.75-7.26 5.57-8.09 8.61-1.53 17.56-1.34 26.27-2.27 24.31-1.49 48.65-2.37 73.01-2.08 6.75-.37 13.45.4 20.19.25Z" fill="#000"/><path d="M607.09 474.28c2.48.12 4.97.24 7.45.37 3.8 14.15 1.78 29.85-5.17 42.73-6.79 12.81-18.41 23-32.1 27.84-14.68 5.57-31.38 4.73-45.56-1.92-13.38-6.21-24.24-17.42-29.82-31.09-4.19-10.23-5.98-22.11-3.62-32.99 1.86-.72 3.69-1.32 5.7-1.4 16.9-1.37 33.84-2.38 50.78-3.11-.41 5.34-.18 10.53 2.09 15.47 3.42 7.65 10.45 13.28 18.62 15.04 4.89.87 9.94.6 14.61-1.13 8.19-2.81 14.36-9.94 16.48-18.26.92-3.9.66-7.59.54-11.55Z" fill="#fff"/><path d="M432.03 480.67c2.01-.23 3.79.3 5.74.68 4.2 9.05 4.82 19.93 3.38 29.69-2.48 14.77-11.15 28.19-23.63 36.48-10.93 7.31-24.46 10.57-37.51 8.79-15.32-1.77-29.51-10.46-38.25-23.14-6.82-9.71-10.02-21.43-10.01-33.24 6.53-3.27 13.18-3.72 20.49-5.47 20.5-4.17 41.07-8.1 61.75-11.22 6-.99 11.97-2.04 18.04-2.57Z" fill="#000"/><path d="M433.71 486.06c1.44 5.27 2.74 10.43 2.6 15.94-.2 9.49-3.01 19.08-8.31 26.99-9.89 15.07-28.07 23.78-46.01 21.88-12.38-1.34-24.01-7.28-32.17-16.71-7.5-8.47-11.57-19.33-12.24-30.58 14.45-3.54 29.14-6.22 43.76-9.01 1.32 6.49 4.55 12.28 10.11 16.03 9.04 6.32 21.92 5.38 29.9-2.26 6.12-5.72 8.04-13.57 7.2-21.73 1.72-.19 3.44-.38 5.16-.55Z" fill="#fff"/></g><g transform="translate(-161 -83)"><g fill="#000"><path d="M452.03 395.85c.66 4.64-1.51 9.35-4.21 13-3.6 4.46-7.81 8.36-12.85 11.13-7.66 4.35-15.96 7.71-24.19 10.81-23.79 8.79-48.56 15.1-73.52 19.48-3.35.54-6.97 1.5-10.36 1.11-1.92-.92-2-2.82-1.11-4.52 2.34-1.8 5.49-2.72 8.19-3.89 35.94-14.72 71.88-29.45 107.8-44.2 3.36-1.25 6.59-3.38 10.25-2.92ZM478.97 396c49.32 7.61 98.68 15.15 148.01 22.75 2.58.42 5.33.58 7.81 1.41 2.44 1.14 1.7 5.04-.96 5.26-9.59.95-19.18 1.82-28.83 1.95-15.39.1-30.64.32-45.98-1.18-20.91-1.64-42.24-4.59-62.25-11.06-6.97-2.41-14.88-5.46-20.27-10.64-1.79-1.9-4.09-4.28-3.17-7.13 1.22-2.13 3.6-1.59 5.64-1.36Z"/></g></g><g transform="translate(-161 -83)"><path d="M517 555.43c13.39-.24 28.69 3.46 38.6 12.98 5.97 5.58 9.72 13.37 9.9 21.58.32 10.21-3.84 19.58-9.89 27.58-9.04 11.85-21.87 20.72-35.47 26.57-7.32 2.84-14.41 5.71-22.15 7.24-16.76 3.21-34.33 1.42-50.03-5.31-13.98-6.01-27.24-14.24-38.31-24.71-5.42-5.3-10.58-11.69-13.28-18.84-2.03-5.48-2.34-11.97 1.22-16.91 3.7-5.37 9.99-7.74 16.18-8.84 12.6-1.77 24.45.42 36.57 3.76 7.36-6.86 15.88-12.06 25.02-16.21 12.99-5.74 27.38-9.28 41.64-8.89Z" fill="#000"/><path d="M542.47 566.35c-3.47 2.67-7.33 4.74-10.83 7.34-4.3 4.07-7.59 10.96-12.77 14.1-5.16.84-10.5-3.32-15.18-1.11-9.25 3.5-18.79 6.01-28.49 7.9-14.14 2.57-29.48 3.77-43.64.89-4.29-1.11-7.12 1.32-11.46 1.88-4.37-4.22-7.53-9.21-12.73-12.59 12.76-5.32 28.76-1.99 41.63 1.51 3.92 1.25 6.04-2.46 8.8-4.48 13.48-10.73 30.18-17.54 47.23-19.85 12.66-1.87 25.64-.74 37.44 4.41Z" fill="#fff"/><path d="M547.96 569.91c7.13 4.29 11.65 12.83 11.82 21.09-.18 7.44-2.97 13.99-6.8 20.24-6.37-2.56-13.17-3.29-19.99-2.88-14.36.89-28.54 4.42-41.91 9.67-9.04 3.64-18.05 8.23-25.74 14.27-3.77 2.98-6.45 6.16-8.76 10.38-7.74-2.15-14.6-5.75-21.53-9.73-9.94-5.85-19.02-12.62-26.5-21.47-3.77-4.64-7.55-10.34-7.78-16.49-.14-2.33.91-4.43 1.72-6.55 5.41 3.65 9.36 8.64 14.22 12.85 4 3.41 9.21-.65 13.75.08 5.81.96 11.66 1.41 17.53 1.74 20.42-.25 40.58-4.31 59.65-11.55 4.16.86 9.89 2.73 13.97 1.05 4.92-2.84 8.62-8.58 12.18-12.91 1.47-1.75 3.81-2.92 5.71-4.17 2.91-1.75 5.48-4.02 8.46-5.62Z" fill="#8F2E45"/><path d="M536 614.18c4.54-.11 8.95.63 13.3 1.9-9.23 11.12-22.42 19.3-35.85 24.38-16.26 6.04-34.23 8.32-51.21 3.94 1.95-2.75 4.09-5.3 6.76-7.39 8.9-7.26 20.21-12.2 30.99-15.97 11.5-3.83 23.86-6.67 36.01-6.86Z" fill="#EA869E"/></g><g transform="translate(-161 -83)"/><g transform="translate(-161 -83)"><path d="M652.981 99.03c3.08.99 6.18 1.54 7.24 5.06-.35 3.09-4.08 3.5-6.35 4.84-14.09 6.64-25.1 20.65-32.58 33.97 27.02-6.74 56.83-1.54 78.63 16.2 3.18 2.38 5.65 5.78 8.95 7.92 3.95 1.17 8.08 1.56 11.95 3.07 17.46 6.02 31.43 20.46 36.87 38.11 4.17 13.29 3.62 27.9-1.53 40.84-5.8 14.98-17.51 27.3-32.04 34.09 4.18 6.2 8.19 12.49 11.54 19.19 1.19 2.42 2.58 4.61 4.51 6.52 5.04 5.12 9.18 10.86 13.21 16.78 9.89 14.88 17.83 31.21 24.08 47.94 6.49 17.19 11.26 35.21 13.5 53.46.88 9.63 1.33 19.97-.46 29.5-1.08 5.11-3.07 11.28-7.04 14.88-2.32 1.4-4.19-.65-6.08-1.78-9.5-6.72-20.35-10.15-32.03-9.56.39 21.56-3.66 44.9-14.53 63.76-8.42 14.61-21.21 26.34-37.83 30.58-2.58.32-3.79.65-3.87-2.44.84-5.49 3.11-10.8 4.42-16.21 5.05-17.72 5.94-37.44 6.74-55.79.16-14.85.44-29.98-1.11-44.74-.62-9.47-1.51-18.97-3.03-28.35-2.27 14.51-5.92 28.61-12.41 41.84-1.3 2.17-2.45 4.77-5.51 3.98-1.99-.47-1.84-2.22-2.19-3.87-.51-14.77-2.42-30.83-8.83-44.32-1.87 4.14-3.07 8.56-5.08 12.62-.97 1.67-1.82 3.58-4.03 3.66-5.91-1.17-11.5-3.82-17.34-5.37-1.97-.74-5.09-1.13-5.78-3.48-.57-3.54.07-7.35.09-10.93.18-4.49-.5-8.87-1.39-13.25-2.01 6.02-4.39 11.82-7.64 17.29-1.31 2.15-3.01 4.53-5.24 5.8-3.09.14-6.29-.98-9.32-1.51-10.65-2.13-21.25-4.07-31.74-6.94-7.58-2.04-15.1-4.26-22.73-6.12-1.6-.52-4.24-.92-3.9-3.19.94-6.69 1.99-13.29 1.79-20.08-.16-9.99.39-20.1-.59-30-.37-6.15-1.58-12.18-1.89-18.33-.35 5.78-.77 11.55-1.03 17.33-.49 14.11-4.21 28.11-10.67 40.66-1.1 1.88-2.36 4.59-4.7 5.08-2.24.76-4.63-.24-6.78-.92-25.37-9.22-51.02-17.91-77.02-25.2-2.73-.8-5.18-1.51-6.67-4.16-8.14-13.89-10.81-29.69-9.73-45.64-5.5 13.34-9.63 26.51-8.33 41.17-.07 2.62 1.1 6.25-2.66 6.58-18.08-.43-35.93 2.52-53.09 8.17-11.02 3.53-21.62 8.16-31.14 14.81-4.11-2.78-4.84-8.18-6.69-12.54-3.74 7.75-6.69 15.82-10.25 23.64-2.72 6.14-3.79 12.38-5.91 18.88-1.24 3.72-1.67 7.65-2.85 11.37-.27 2.19-3.44 2.35-4.75 1.03-3.24-3.35-4.02-8.47-4.38-12.92-1.26-17.32.44-34.49 7.64-50.45-1.9 2.04-3.83 6.73-7.25 4.44-10.02-7.21-16.16-19.7-16.41-31.99-.96-17.46 6.79-34.56 16.91-48.38 18.86-25.73 47.34-44.57 77.63-54.04-11.8-.05-23.64 1.47-35.24 3.56-10.81 2.18-22.28 4.68-32.25 9.54-3.08 1.39-6.35 4.48-9.78 4.53-1.64-.93-2.69-2.07-1.9-4.05 2.32-6.15 6.02-11.88 9.8-17.23 22.97-31.36 64.31-48.02 102.6-41.27 15.22 2.59 29.45 9.07 41.19 19.14 14.28-5.3 30.38-8.61 45.61-6.98-5.08-8.71-7.52-18.77-7.37-28.83.52-9.53 3.07-19.01 7.63-27.41 7.99-14.97 21.79-26.63 37.88-32.01 1.93-.45 4.26-1.51 5.95.02 1.74 1.21.83 4.05-.42 5.39-10.89 13.35-15.49 31.73-13.2 48.7 4.12-2.59 8.34-4.8 12.99-6.3 12.46-25.24 34.91-45.25 61.02-55.55 13.97-5.25 29.56-7.86 44.19-3.81Z" fill="#000"/><path d="M650 104.12c-9.13 5.15-16.969 12.22-23.419 20.46-12.25 15.54-20.701 34.67-22.861 54.4-1.1 10.03.08 19.27 4.16 28.5-2.12-.57-4.13-1.27-6.15-2.14-13.73-5.85-28.96-7.7-43.79-6.99-4.02-2.08-7.92-4.15-11.21-7.32.12-5.68.211-11.23 1.601-16.79 2.69-10.62 7.849-20.72 14.459-29.44 10.9-14.46 25.6-26.38 42.02-34.03 14.09-6.33 29.81-10.3 45.19-6.65Z" fill="rgba(106, 78, 53, 1)"/><path d="M538.89 118.17c-2.16 4.49-4.59 8.78-6.2 13.52-5.8 16.3-5.94 35.3 1.48 51.11 3.12 6.74 7.81 12.22 13.72 16.67-7.81 1.18-15.35 3.33-22.89 5.65-3.93-2.71-8.45-3.44-12.7-5.3-4.81-5.22-7.53-12.94-8.81-19.84-.83-7.65-.8-15.8 1.48-23.21 4.97-17.05 17.72-31.4 33.92-38.6ZM676.16 151.81c12.61 5.02 23.87 13.16 31.91 24.16 7.31 10.05 11.79 22.51 11.4 35.03.18 11.49-3.85 22.86-10.11 32.41-1.23 1.63-1.89 4.95.83 5.35 1.66.59 2.83-.64 3.72-1.87 9.12-13.3 13.17-29.93 10.66-45.92-1.41-9.81-5.4-18.73-10.71-27.02 6.19 1.68 12.1 4.14 17.4 7.81 13.65 9.16 22.5 24.83 23.35 41.25.81 12.33-2.69 24.77-9.63 34.98-6.03 9.07-14.54 15.74-24.23 20.56-6.47-8.31-13.55-16.03-21.93-22.45-10.98-8.5-23.53-14.54-37.68-14.54-4.81-5.38-10.16-9.89-16.46-13.42-2.66-7.73-7.07-14.51-14.49-18.36-4.82-2.58-9.8-2.89-15.09-3.66-.84-.03-1.43-.46-1.77-1.28-3.32-5.94-4.29-13.13-4.21-19.84.21-12.03 3.79-24.16 8.67-35.08 19.02-5.98 39.83-5.56 58.37 1.89Z" fill="rgba(106, 78, 53, 1)"/><path d="M545 165.09c-1.92 6.14-3.46 12.28-3.87 18.73-2.31-4.32-4.1-8.77-5.3-13.53 2.98-1.87 6.02-3.64 9.17-5.2ZM402.001 191.1c18.07-.15 36.39 5.9 50.58 17.16-30.77 13.54-58.29 37.26-74.31 67.01-2.64 5.31-5.61 10.95-6.69 16.81.96 3.16 4.43 3.14 5.57.15 5.5-15.26 14.21-29 25.16-40.92 18.33-20.05 42.26-35.84 68.44-43.4 15.34-4.29 31.97-5.68 47.16-.03-34.8 14.55-64.48 43.14-76.95 79.11-1.62 3.96-1.95 9.07-4.69 12.35-3.14 4.02-5.17 9.18-7.13 13.87-5.27 12.92-8.14 26.65-6.9 40.65-5.11-.01-10.15-.1-15.24.51-22.56 2.46-45.53 8.82-65.19 20.38-3.27-8.35-5.93-16.91-7.62-25.73-3.25-16.32-3.76-33.33 1.58-49.28 1.2-4.15 3.99-6.84 2.77-11.34-1.25.07-2.55.07-3.77.31-2.62 2.96-3.83 7.37-5.1 11.05-6.14 20.17-3.85 43.33 2.02 63.32-5.3 9.14-8.74 18.92-13.22 28.44-3.23 7.11-4.46 14.49-7.06 21.82-1.29-19.08.64-38.05 9.82-55.12.87-1.88 2.48-4.13 2.33-6.23-.1-2.16-2.68-3.25-4.43-2.08-4.32 2.51-8.12 6.42-11.47 10.08-9.75-8.73-13.85-21.92-11.99-34.74 2.5-18.49 13.72-35.91 26.46-49.13 19.27-19.8 44.24-34.37 71.14-40.85 2.78-.73 6.12-.96 8.6-2.45 1.35-.85 1.16-2.13.9-3.52-.77-1.2-2.63-1.71-3.94-2.12-11.07-2.13-21.7-1.28-32.8-.36-17.55 2.1-35.4 5.46-51.72 12.49 17.69-30.24 52.8-49.17 87.69-48.21Z" fill="rgba(106, 78, 53, 1)"/><path d="M599.201 210.44c-3.29 2.59-6.8 5.05-9.19 8.57-.95 1.61-1.93 2.91-.69 4.71.84 1.66 3.19 1.24 4.18-.15 4.49-5.19 9.49-9.98 16.53-11.22 8.23-.92 17.21.09 23.19 6.43 3.98 3.89 5.44 8.69 7.39 13.72 12.19 6.4 20.68 16.93 26.89 29.02 8.21 15.16 13.15 31.34 17.33 47.99 5.44 21.38 8.17 43.43 8.05 65.49-.23 21.82-3.3 44.51-11.39 64.88-2.08-15.29-4.11-29.6-12.5-42.95 4.91-19.45 3.57-38.88.13-58.43-.65-3.23-.87-7.15-2.63-9.97-1.31-.38-2.82-.31-4.18-.35-.27 2.55-.17 4.84.38 7.35 2.3 11.02 3.42 22.23 3.95 33.47.03 15.75-3.14 31.54-9.29 46.05-5.87-1.74-11.65-3.74-17.51-5.53.95-10.34.77-22.16-3.29-31.88 4.76-21.82 5.95-44.44 4.43-66.69-1.36-16.17-3.44-33.08-9.65-48.19-1.04-2.71-5.59-1.97-5.34 1.13 1.44 5.76 3.86 11.24 5.01 17.11 5.13 23.8 5.92 48.81 3.62 73.01-2.16 17.6-5.11 35.81-14.79 51.05-11.45-2.24-22.96-4.28-34.33-6.89-8.79-2.19-17.53-4.6-26.3-6.85 1.77-10.19 1.46-20.27 1.53-30.56.11-19.02-2.48-38.08-7-56.54-.78-2.38-1.22-6.16-3.6-7.49-2.57-.56-3.96.71-3.92 3.22.35 13.68.23 27.34-.4 41-.51 14.53-4.08 28.87-11.07 41.66-15.58-5.47-31.4-11.35-47.25-16.19-12.02-3.84-24.18-7.18-36.31-10.63-9.26-15.54-11.84-34.05-8.65-51.75 3.66-21.3 14.44-40.72 28.88-56.62 18.65-20.42 43.92-35.47 71.1-41.03 18.76-3.93 38.81-3.22 56.69 4.05Z" fill="rgba(106, 78, 53, 1)"/><path d="M665.881 247.5c5.53.83 10.9 2.34 15.93 4.8 15.29 7.27 27.52 20.05 37.21 33.7 17.42 24.81 28.08 54.58 32.01 84.55.54 4.63.73 9.17 1.46 13.76.85.36 1.7.71 2.55 1.07.85-.43 1.71-.86 2.57-1.29.32-7.67-1.09-15.47-2.2-23.05-1.91-12.23-5.62-23.89-9.24-35.68 9.79 13.67 17.45 29.12 23.77 44.67 8.06 20.36 14.17 42.1 15.91 63.98.65 10.64.38 21.98-4.7 31.62-10.62-7.47-22.76-11.67-35.83-11.44-.71-14.1-2.85-28.06-6.58-41.69-1.53-5.39-2.93-11.18-5.53-16.14-1.26.21-2.46.54-3.62.99-1.34 1.8-.35 3.23.1 5.14 5.04 14.84 8.25 30.4 9.46 46.02.9 8.72.93 17.75-.04 26.47-1.3 16.23-5.58 33.12-14.01 47.18-6.73 11.36-16.55 20.58-28.97 25.34 2.58-8.7 5.14-17.25 6.46-26.26 1.51-10.33 2.69-20.79 2.89-31.24 1.3-21.72.94-43.62-1.59-65.24-.86-8.66-1.99-17.36-3.87-25.86-.69-3.21-2.04-5.98-1.93-9.12.02-3.93.47-7.85.57-11.78.29-10.59-.6-21.45-1.47-32.01-2.06-19.74-6.49-39.01-12.42-57.93-4.41-14.27-10.72-28.05-18.89-40.56Z" fill="rgba(106, 78, 53, 1)"/><path d="M719.909 576.44c2.34.11 4.75.92 7.04 1.42 4.73 1.14 9.9 1.28 14.77 1.72.81 3.41.63 4.91-1.26 7.84-4.01 5.9-7.24 12.21-11.04 18.23 11 .16 21.54 1.41 31.48 6.42 6.68 3.44 12.54 8.82 14.97 16.09 2.47 7.43.97 15.38-2.48 22.24-4.32 8.57-11.64 15.97-19.12 21.87-2.65 2-5.39 4.28-8.46 5.6-1.5.75-3.38-.52-4.32-1.67-.17-2.71 2.24-4.91 3.54-7.17 3.65-5.55 4.06-12.46 2.56-18.79-2.31-8.62-8.45-16.05-15.69-21.1-6.51-4.66-14.02-7.69-21.86-9.24-5.72-1.35-12.13 2.08-18.01 1.21-1.78-1-2.9-1.9-2.48-4.15 1.77-2.84 4.6-5.05 6.76-7.63 3.56-4.16 6.82-8.59 9.9-13.12 3.52-5.2 7.37-10.04 10.4-15.57.89-1.41 1.78-3.4 3.3-4.2Z" fill="#000"/><path d="M721.761 582.28c4.74 1.08 9.47 1.9 14.33 2.17-5.3 7.69-9.47 16.01-14.95 23.6 2.42 2.27 4.49 3.37 7.87 3.34 9.01.01 17.79 1.03 26.21 4.41 4.59 1.87 9.19 4.77 12.26 8.73 3.59 4.66 4.84 10.82 3.23 16.5-2.47 10.09-10.13 18.34-17.75 24.98 1.39-5.74 1.85-11.53.2-17.28-2.87-10.45-10.43-19.68-19.62-25.3-9.96-6.76-22.39-11.1-34.48-8.55 4.48-5.22 8.47-10.74 12.29-16.46 3.6-5.36 7.37-10.42 10.41-16.14Z" fill="rgba(106, 78, 53, 1)"/></g></g></svg>